<svg xmlns="http://www.w3.org/2000/svg" xmlns:xlink="http://www.w3.org/1999/xlink" viewBox="0 0 234.98 57.52"><defs><clipPath id="a" transform="translate(0.91 1.3)"><path d="M42.08,12.9a1.21,1.21,0,0,0-1.38-1,1.07,1.07,0,0,0-.65.33l-6.24,6.23L28.93,9.14a1.2,1.2,0,0,0-1.62-.51h0a1.39,1.39,0,0,0-.51.51l-2.66,5.1L17.43,1.72a1.19,1.19,0,0,0-1.62-.47h0a1.24,1.24,0,0,0-.63.86L8.68,43.63,26,53.41a3.61,3.61,0,0,0,3.49,0L47,43.67Z" style="fill:none"></path></clipPath><linearGradient id="b" x1="16.15" y1="293.38" x2="13.76" y2="294.63" gradientTransform="matrix(1, 0, 0, -1, 0, 322.81)" gradientUnits="userSpaceOnUse"><stop offset="0" stop-color="#a52714"></stop><stop offset="0.4" stop-color="#a52714" stop-opacity="0.5"></stop><stop offset="0.8" stop-color="#a52714" stop-opacity="0"></stop></linearGradient><linearGradient id="c" x1="26.32" y1="296.87" x2="25.25" y2="297.94" gradientTransform="matrix(1, 0, 0, -1, 0, 322.81)" gradientUnits="userSpaceOnUse"><stop offset="0" stop-color="#a52714" stop-opacity="0.8"></stop><stop offset="0.5" stop-color="#a52714" stop-opacity="0.21"></stop><stop offset="1" stop-color="#a52714" stop-opacity="0"></stop></linearGradient><linearGradient id="d" x1="-1139.91" y1="2030.07" x2="-1124.92" y2="2045.07" gradientTransform="translate(3051.23 -5409.9) scale(2.67)" gradientUnits="userSpaceOnUse"><stop offset="0" stop-color="#fff" stop-opacity="0.1"></stop><stop offset="1" stop-color="#fff" stop-opacity="0"></stop></linearGradient></defs><rect x="0.91" y="1.3" width="55.47" height="55.47" style="fill:none"></rect><g style="clip-path:url(#a)"><path d="M8.68,43.63l6.5-41.52a1.17,1.17,0,0,1,1.34-1,1.24,1.24,0,0,1,.87.62L24.1,14.28l2.66-5.1a1.2,1.2,0,0,1,1.62-.51h0a1.39,1.39,0,0,1,.51.51L47,43.63Z" transform="translate(0.91 1.3)" style="fill:#ffa000"></path><path d="M30.85,1.41-.91-1.3V56.22L8.68,43.63Z" transform="translate(0.91 1.3)" style="opacity:0.11999999731779099;fill:url(#b)"></path><path d="M31.12,27.46l-7-13.21L8.68,43.63Z" transform="translate(0.91 1.3)" style="fill:#f57c00"></path><path d="M-.91-1.3H56.61V56.22H-.91Z" transform="translate(0.91 1.3)" style="opacity:0.20000000298023224;fill:url(#c)"></path><path d="M47,43.63,42,12.87a1.21,1.21,0,0,0-1.38-1,1.13,1.13,0,0,0-.65.33L8.68,43.63,26,53.41a3.61,3.61,0,0,0,3.49,0Z" transform="translate(0.91 1.3)" style="fill:#ffca28"></path><path d="M42.08,12.9a1.21,1.21,0,0,0-1.38-1,1.07,1.07,0,0,0-.65.33l-6.24,6.23L28.93,9.14a1.2,1.2,0,0,0-1.62-.51h0a1.39,1.39,0,0,0-.51.51l-2.66,5.1L17.43,1.72a1.19,1.19,0,0,0-1.62-.47h0a1.24,1.24,0,0,0-.63.86L8.68,43.63h0l.18.09,25-25,6.24-6.23a1.18,1.18,0,0,1,1.67,0l0,0a1.1,1.1,0,0,1,.33.66l4.92,30.46h.06ZM8.74,43.57,15.18,2.41a1.17,1.17,0,0,1,1.32-1h0a1.21,1.21,0,0,1,.87.62L24.1,14.56l2.66-5.1a1.18,1.18,0,0,1,1.6-.52h0a1.39,1.39,0,0,1,.51.51l4.79,9.11Z" transform="translate(0.91 1.3)" style="fill:#fff;fill-opacity:0.20000000298023224"></path><path d="M29.52,53.07a3.63,3.63,0,0,1-3.5,0L8.71,43.41v.27L26,53.41a3.61,3.61,0,0,0,3.49,0L47,43.67V43.4Z" transform="translate(0.91 1.3)" style="fill:#a52714;opacity:0.20000000298023224"></path><path d="M42.08,12.9a1.21,1.21,0,0,0-1.38-1,1.07,1.07,0,0,0-.65.33l-6.24,6.23L28.93,9.14a1.2,1.2,0,0,0-1.62-.51h0a1.39,1.39,0,0,0-.51.51l-2.66,5.1L17.43,1.72a1.19,1.19,0,0,0-1.62-.47h0a1.24,1.24,0,0,0-.63.86L8.68,43.63,26,53.41a3.61,3.61,0,0,0,3.49,0L47,43.67Z" transform="translate(0.91 1.3)" style="fill:url(#d)"></path></g><path d="M83.94,43.41H79.8V11.32H98.57v4H83.94V25.84H97.16V29.7H84V43.41Zm21.75-27.5a3,3,0,1,1,.83-2,2.91,2.91,0,0,1-.83,2.07Zm0,27.5h-4.17v-22h4.14Zm8.63,0h-4.14v-22h4V25h.18a5.44,5.44,0,0,1,2.6-2.94,7.27,7.27,0,0,1,3.78-1.16,8,8,0,0,1,3.09.52l-1.58,3.86A6.13,6.13,0,0,0,120,25a5.31,5.31,0,0,0-4,1.79,6.33,6.33,0,0,0-1.72,4.66Zm19.44.74a10.6,10.6,0,0,1-8.11-3.33,11.82,11.82,0,0,1-3.13-8.35,12.27,12.27,0,0,1,3-8.28,9.81,9.81,0,0,1,7.75-3.47,10.07,10.07,0,0,1,7.82,3.19,12.08,12.08,0,0,1,3,8.53v.77H126.67a7.55,7.55,0,0,0,2.21,5.26,6.66,6.66,0,0,0,4.77,1.94q4.5,0,6-3.79l3.68,1.54a9.68,9.68,0,0,1-3.5,4.25,10.33,10.33,0,0,1-6.07,1.78Zm5.93-14.39A5.93,5.93,0,0,0,138,26.19a6.21,6.21,0,0,0-4.74-1.72,5.92,5.92,0,0,0-4,1.44,7.19,7.19,0,0,0-2.32,3.85ZM158.6,44.15a9.16,9.16,0,0,1-4.53-1.09,7.44,7.44,0,0,1-3-2.7h-.18v3h-4v-32H151V21.41l-.18,3.06H151a7.65,7.65,0,0,1,3-2.7,9.53,9.53,0,0,1,4.53-1.09,9.64,9.64,0,0,1,7.36,3.37,11.8,11.8,0,0,1,3.13,8.36A11.81,11.81,0,0,1,166,40.76a9.6,9.6,0,0,1-7.36,3.43Zm-.71-3.74a6.6,6.6,0,0,0,5-2.18,8,8,0,0,0,2.07-5.75,8,8,0,0,0-2.07-5.75,6.6,6.6,0,0,0-5-2.18A6.49,6.49,0,0,0,153,26.69a8.18,8.18,0,0,0-2,5.79,8,8,0,0,0,2,5.79A6.53,6.53,0,0,0,157.89,40.41Zm21.44,3.79a8.59,8.59,0,0,1-5.86-2,6.65,6.65,0,0,1-2.35-5.33,6.66,6.66,0,0,1,2.77-5.65,11.24,11.24,0,0,1,6.88-2,11.91,11.91,0,0,1,6,1.33v-.63A5,5,0,0,0,185.12,26a5.9,5.9,0,0,0-4.07-1.48,6.52,6.52,0,0,0-3.26.84,4.28,4.28,0,0,0-2,2.35L172,26.13a8.61,8.61,0,0,1,3-3.65,9.69,9.69,0,0,1,5.93-1.68,10.18,10.18,0,0,1,7,2.45,8.8,8.8,0,0,1,2.78,7V43.41h-4v-3h-.19a8.1,8.1,0,0,1-7.19,3.78Zm.67-3.79a6.63,6.63,0,0,0,4.63-1.89,5.94,5.94,0,0,0,2.1-4.53,8.19,8.19,0,0,0-5.21-1.45,6.8,6.8,0,0,0-4.53,1.3,4,4,0,0,0-1.54,3,2.91,2.91,0,0,0,1.4,2.56A5.64,5.64,0,0,0,180,40.41Zm22.17,3.79a9.81,9.81,0,0,1-6.07-1.79,10.47,10.47,0,0,1-3.51-4.49l3.68-1.51a6.06,6.06,0,0,0,6,4.13,5.43,5.43,0,0,0,3.16-.84,2.64,2.64,0,0,0,1.19-2.29c0-1.44-1-2.42-3-2.91l-4.47-1.09a10.77,10.77,0,0,1-4-2,4.92,4.92,0,0,1-1.89-4.07,5.59,5.59,0,0,1,2.59-4.73,11,11,0,0,1,11.34-.49,7.18,7.18,0,0,1,3.26,3.79l-3.58,1.47c-.81-1.93-2.49-2.91-5-2.91a5.63,5.63,0,0,0-3.08.77,2.32,2.32,0,0,0-1.27,2c0,1.26,1,2.1,2.91,2.56l4.35,1a8.53,8.53,0,0,1,4.6,2.45,6,6,0,0,1,1.47,4,6.12,6.12,0,0,1-2.42,4.94,9.42,9.42,0,0,1-6.26,2Zm21.58,0a10.6,10.6,0,0,1-8.11-3.33,11.84,11.84,0,0,1-3.12-8.4,12.27,12.27,0,0,1,3-8.28,9.81,9.81,0,0,1,7.75-3.47,10.07,10.07,0,0,1,7.82,3.19,12.09,12.09,0,0,1,3,8.5v.77h-17.4a7.55,7.55,0,0,0,2.21,5.26,6.67,6.67,0,0,0,4.77,2c3,0,5-1.26,6-3.79l3.69,1.54a9.61,9.61,0,0,1-3.52,4.25,10.28,10.28,0,0,1-6.06,1.78Zm5.92-14.39A5.87,5.87,0,0,0,228,26.24a6.21,6.21,0,0,0-4.74-1.72,6,6,0,0,0-4,1.44,7.31,7.31,0,0,0-2.31,3.85Z" transform="translate(0.91 1.3)" style="fill:#5f6368"></path></svg>