
<svg viewBox="0 0 4096 4096" width="80mm" height="50mm" xmlns="http://www.w3.org/2000/svg">
  <g transform="matrix(42.666668, 0, 0, 42.666668, -0.000061, 0.014659)">
    <path d="M 15.5 74 L 13.869 75.4 C 12.723 76.382 11.121 76.635 9.728 76.055 L 2.462 73.026 C 0.971 72.405 0 70.948 0 69.333 L 0 26.667 C 0 25.052 0.971 23.595 2.462 22.974 L 9.728 19.947 C 11.121 19.367 12.723 19.62 13.869 20.602 L 15.5 22 C 14.114 21.009 12.175 21.89 12.01 23.586 C 12.003 23.657 12 23.728 12 23.8 L 12 72.2 C 12.002 73.904 13.848 74.968 15.323 74.114 C 15.384 74.079 15.443 74.041 15.5 74 Z" fill="#52218a"></path>
    <path d="M 96 15.77 L 96 16 C 96.001 13.086 92.846 11.263 90.322 12.72 C 90.143 12.823 89.973 12.941 89.813 13.072 L 15.5 74 L 13.869 75.4 C 12.723 76.382 11.121 76.635 9.728 76.055 L 2.462 73.026 C 0.971 72.405 0 70.948 0 69.333 L 0 69 C 0 70.778 1.925 71.89 3.465 71.001 C 3.674 70.88 3.862 70.728 4.024 70.549 L 66 2 C 67.797 0.203 70.533 -0.262 72.823 0.841 L 92.6 10.364 C 94.678 11.363 95.999 13.464 96 15.77 Z" fill="#6c33af"></path>
    <path d="M 96 80 L 96 80.23 C 95.999 82.536 94.678 84.637 92.6 85.636 L 72.82 95.159 C 70.531 96.261 67.796 95.796 66 94 L 4.024 25.451 C 2.832 24.132 0.658 24.597 0.112 26.29 C 0.038 26.519 0 26.759 0 27 L 0 26.667 C 0 25.052 0.971 23.595 2.462 22.974 L 9.728 19.947 C 11.121 19.367 12.723 19.62 13.869 20.602 L 15.5 22 L 89.813 82.928 C 92.066 84.776 95.476 83.492 95.95 80.616 C 95.983 80.413 96 80.206 96 80 Z" fill="#854cc7"></path>
    <path d="M 66 94 C 66.138 94.138 66.292 94.254 66.441 94.377 C 66.284 94.263 66.137 94.137 66 94 Z M 66.441 1.623 C 66.284 1.737 66.137 1.863 66 2 C 66.139 1.861 66.292 1.746 66.441 1.623 Z M 92.6 10.349 L 72.823 0.839 C 70.725 -0.166 68.234 0.14 66.441 1.623 C 68.645 0.051 71.725 1.455 71.984 4.15 C 71.995 4.261 72 4.373 72 4.485 L 72 91.515 C 71.999 94.222 69.067 95.913 66.723 94.559 C 66.626 94.503 66.532 94.442 66.441 94.377 C 68.234 95.86 70.725 96.166 72.823 95.161 L 92.6 85.651 C 94.678 84.652 96 82.55 96 80.244 L 96 15.757 C 96 13.451 94.679 11.348 92.6 10.349 Z" fill="#b179f1"></path>
  </g>
</svg>