<svg xmlns="http://www.w3.org/2000/svg" width="80mm" height="50mm" viewBox="0 0 256 256" fill="none">
  <mask id="a" maskUnits="userSpaceOnUse" x="0" y="0" width="256" height="256">
    <path fill-rule="evenodd" clip-rule="evenodd" d="M181.534 254.252c4.032 1.571 8.63 1.47 12.7-.488l52.706-25.361c5.538-2.665 9.06-8.271 9.06-14.42V42.0181c0-6.1492-3.522-11.7543-9.06-14.4193L194.234 2.23681c-5.341-2.569942-11.592-1.940466-16.279 1.46737-.67.48682-1.308 1.03036-1.906 1.62936L75.149 97.3862 31.1992 64.0247c-4.0913-3.1056-9.8139-2.8512-13.6137.6053L3.48936 77.4525c-4.64789 4.228-4.65322 11.5401-.01151 15.7749L41.5926 128 3.47785 162.773c-4.64171 4.235-4.63638 11.547.01151 15.775L17.5855 191.37c3.7998 3.457 9.5224 3.711 13.6137.606l43.9498-33.362 100.9 92.053c1.596 1.597 3.47 2.8 5.485 3.585zm10.505-184.3667L115.479 128l76.56 58.115V69.8853z" fill="#fff"></path>
  </mask>
  <g mask="url(#a)">
    <path d="M246.94 27.6383L194.193 2.24138c-6.105-2.939682-13.402-1.699659-18.194 3.09194L3.32371 162.773c-4.64453 4.235-4.63919 11.547.01152 15.775L17.4399 191.37c3.8022 3.457 9.5283 3.711 13.622.606L239.003 34.2269c6.976-5.2922 16.996-.3166 16.996 8.4398v-.6124c0-6.1465-3.521-11.7496-9.059-14.416z" fill="#0065A9"></path>
    <g filter="url(#filter0_d)">
      <path d="M246.94 228.362l-52.747 25.397c-6.105 2.939-13.402 1.699-18.194-3.092L3.32371 93.2272c-4.64453-4.2347-4.63919-11.547.01152-15.7749L17.4399 64.6298c3.8022-3.4565 9.5283-3.711 13.622-.6053L239.003 221.773c6.976 5.292 16.996.317 16.996-8.44v.613c0 6.146-3.521 11.749-9.059 14.416z" fill="#007ACC"></path>
    </g>
    <g filter="url(#filter1_d)">
      <path d="M194.196 253.763c-6.107 2.937-13.404 1.696-18.196-3.096 5.904 5.904 16 1.722 16-6.628V11.9606c0-8.35003-10.096-12.531775-16-6.62739 4.792-4.792044 12.089-6.033817 18.196-3.09673l52.738 25.36202c5.542 2.665 9.066 8.2701 9.066 14.4193V213.983c0 6.149-3.524 11.754-9.066 14.419l-52.738 25.361z" fill="#1F9CF0"></path>
    </g>
    <path fill-rule="evenodd" clip-rule="evenodd" d="M181.378 254.252c4.032 1.57 8.63 1.47 12.699-.488l52.706-25.362c5.539-2.665 9.061-8.27 9.061-14.419V42.0179c0-6.1492-3.522-11.7543-9.06-14.4193L194.077 2.23665c-5.34-2.569949-11.591-1.940473-16.279 1.46736-.669.48682-1.307 1.03036-1.906 1.62936L74.9927 97.386 31.0429 64.0245c-4.0912-3.1056-9.8139-2.8511-13.6137.6053L3.33311 77.4523c-4.64789 4.228-4.65322 11.5402-.01151 15.775L41.4364 128 3.3216 162.773c-4.64171 4.235-4.63638 11.547.01151 15.775L17.4292 191.37c3.7998 3.457 9.5225 3.711 13.6137.606l43.9498-33.362 100.8993 92.053c1.596 1.597 3.471 2.8 5.486 3.585zm10.505-184.3669L115.323 128l76.56 58.115V69.8851z" fill="url(#paint0_linear)" opacity=".25"></path>
  </g>
  <defs>
    <filter id="filter0_d" x="-21.4896" y="40.5225" width="298.822" height="236.149" filterUnits="userSpaceOnUse" color-interpolation-filters="sRGB">
      <feFlood flood-opacity="0" result="BackgroundImageFix"></feFlood>
      <feColorMatrix in="SourceAlpha" values="0 0 0 0 0 0 0 0 0 0 0 0 0 0 0 0 0 0 127 0"></feColorMatrix>
      <feOffset></feOffset>
      <feGaussianBlur stdDeviation="10.6667"></feGaussianBlur>
      <feColorMatrix values="0 0 0 0 0 0 0 0 0 0 0 0 0 0 0 0 0 0 0.25 0"></feColorMatrix>
      <feBlend mode="overlay" in2="BackgroundImageFix" result="effect1_dropShadow"></feBlend>
      <feBlend in="SourceGraphic" in2="effect1_dropShadow" result="shape"></feBlend>
    </filter>
    <filter id="filter1_d" x="154.667" y="-20.6735" width="122.667" height="297.347" filterUnits="userSpaceOnUse" color-interpolation-filters="sRGB">
      <feFlood flood-opacity="0" result="BackgroundImageFix"></feFlood>
      <feColorMatrix in="SourceAlpha" values="0 0 0 0 0 0 0 0 0 0 0 0 0 0 0 0 0 0 127 0"></feColorMatrix>
      <feOffset></feOffset>
      <feGaussianBlur stdDeviation="10.6667"></feGaussianBlur>
      <feColorMatrix values="0 0 0 0 0 0 0 0 0 0 0 0 0 0 0 0 0 0 0.25 0"></feColorMatrix>
      <feBlend mode="overlay" in2="BackgroundImageFix" result="effect1_dropShadow"></feBlend>
      <feBlend in="SourceGraphic" in2="effect1_dropShadow" result="shape"></feBlend>
    </filter>
    <linearGradient id="paint0_linear" x1="127.844" y1=".659988" x2="127.844" y2="255.34" gradientUnits="userSpaceOnUse">
      <stop stop-color="#fff"></stop>
      <stop offset="1" stop-color="#fff" stop-opacity="0"></stop>
    </linearGradient>
  </defs>
</svg>
